:SAMPLES-PER-SECOND 30
:FULLY-SPECIFIED
:DEGREES
483
root  28.5384 21.4121 -3.0667 -107.462 87.8811 -143.957
RightUpLeg  -57.1745 -1.54358 -0.522287
RightLeg  119.005 7.70617 -11.8821
RightFoot  -1.15792 -0.71394 7.86708
RightToes  -1.33073e-015 0 -3.6325e-017
Spine  52.503 -7.23374 13.4743
Spine1  -11.5542 -1.17623 2.67989
HEad  -54.9539 5.17977 -10.1122
LeftShoulder1  9.54846 -22.5067 -30.5505
LeftArm  -34.4084 -68.5747 -7.66135
LeftForeArm  50.0508 -1.43336 -4.99083
LeftHand  -0.244104 0.0205437 5.32207
RightShoulder  8.45208 17.9955 33.3008
RightArm  -8.26833 51.0523 35.396
RightForeArm  31.9837 0.663087 6.09237
RightHand  -37.0456 44.5531 -74.2449
LeftUpLeg  -33.3588 -2.65066 -1.3091
LeftLeg  100.341 -0.953451 3.09549
LeftFoot  8.15125 0.326708 -2.19124
LeftToes  -7.82198e-011 2.46994e-011 -7.94165e-012
484
root  29.254 21.2414 -2.91519 -162.453 86.6303 161.87
RightUpLeg  -54.5953 -3.88282 -0.762063
RightLeg  118.017 8.82621 -14.1772
RightFoot  1.11917 -1.10588 10.2017
RightToes  -1.33073e-015 0 -3.6325e-017
Spine  52.6092 -7.65119 12.5008
Spine1  -10.8117 -2.09665 3.95618
HEad  -55.2119 4.29136 -9.94063
LeftShoulder1  9.67744 -22.6725 -30.81
LeftArm  -29.5594 -68.5094 -11.1016
LeftForeArm  50.416 -1.3281 -6.02078
LeftHand  -0.244104 0.0205437 5.32207
RightShoulder  8.56954 17.7438 34.3156
RightArm  -7.70311 49.4701 34.2659
RightForeArm  31.3413 1.14707 6.45522
RightHand  -37.7305 44.7752 -75.0627
LeftUpLeg  -30.3364 -4.37761 -2.27379
LeftLeg  99.1548 -0.745022 2.37793
LeftFoot  7.87239 0.275926 -1.91372
LeftToes  -7.82198e-011 2.46994e-011 -7.94165e-012
485
root  30.0611 21.1665 -2.78709 -177.271 85.0147 147.485
RightUpLeg  -51.1787 -6.31565 -0.704367
RightLeg  116.31 9.65238 -16.5883
RightFoot  1.403 -1.30675 11.7596
RightToes  -1.33073e-015 0 -3.6325e-017
Spine  52.6704 -7.79713 11.89
Spine1  -10.4328 -2.43192 3.81233
HEad  -54.9623 2.90444 -9.07896
LeftShoulder1  9.78908 -22.8597 -30.9691
LeftArm  -24.0584 -67.7347 -16.4532
LeftForeArm  51.265 -2.90293 -6.71427
LeftHand  -0.244104 0.0205437 5.32207
RightShoulder  8.85729 17.5418 36.0435
RightArm  -7.86778 47.2153 32.2316
RightForeArm  30.5425 1.5749 6.64547
RightHand  -38.3396 44.9639 -75.7903
LeftUpLeg  -27.6771 -5.47364 -3.09883
LeftLeg  97.5484 -0.523107 1.49625
LeftFoot  6.90356 0.308881 -2.18935
LeftToes  -7.82198e-011 2.46994e-011 -7.94165e-012
486
root  30.8867 21.2408 -2.72336 -179.793 85.164 144.381
RightUpLeg  -49.0695 -7.33518 -0.129662
RightLeg  113.755 9.99744 -19.0577
RightFoot  0.733243 -1.28886 12.1906
RightToes  -1.33073e-015 0 -3.6325e-017
Spine  52.7597 -7.27742 11.7758
Spine1  -10.9132 -1.71408 1.88498
HEad  -54.3051 1.28769 -7.89268
LeftShoulder1  9.77129 -23.1244 -30.523
LeftArm  -18.3564 -67.5257 -21.6129
LeftForeArm  50.9647 -3.10763 -7.66547
LeftHand  -0.244104 0.0205437 5.32207
RightShoulder  9.26084 17.4014 38.191
RightArm  -8.20584 44.7965 29.6783
RightForeArm  29.4414 1.66023 6.84128
RightHand  -38.5449 45.03 -76.0305
LeftUpLeg  -26.7172 -4.95615 -3.331
LeftLeg  96.1637 -0.487134 1.52688
LeftFoot  5.56712 0.380427 -2.78926
LeftToes  -7.82198e-011 2.46994e-011 -7.94165e-012
487
root  31.6169 21.4002 -2.71022 179.18 86.4067 142.29
RightUpLeg  -48.0912 -7.10862 0.235828
RightLeg  111.274 9.75171 -20.7039
RightFoot  0.371754 -1.27872 12.4443
RightToes  -1.33073e-015 0 -3.6325e-017
Spine  53.0395 -6.3159 11.4563
Spine1  -11.6675 -0.654589 -0.389365
HEad  -53.8341 0.0543607 -7.33265
LeftShoulder1  9.63055 -23.2377 -29.8288
LeftArm  -13.4245 -68.394 -25.434
LeftForeArm  50.3605 -1.58471 -8.77269
LeftHand  -0.244104 0.0205437 5.32207
RightShoulder  9.60437 17.44 39.6832
RightArm  -7.51424 43.2139 27.5227
RightForeArm  27.313 1.20896 7.46212
RightHand  -38.1668 44.9158 -75.5786
LeftUpLeg  -27.6896 -3.59309 -3.35686
LeftLeg  96.1425 -0.673953 2.78301
LeftFoot  4.05275 0.381673 -3.00209
LeftToes  -7.82198e-011 2.46994e-011 -7.94165e-012
488
root  32.1724 21.5588 -2.69255 171.685 86.7905 134.502
RightUpLeg  -46.5185 -6.93403 -0.521797
RightLeg  109.723 8.85153 -20.2842
RightFoot  0.283853 -1.28846 12.6314
RightToes  -1.33073e-015 0 -3.6325e-017
Spine  53.6269 -5.57059 10.3052
Spine1  -11.6746 -0.32601 -1.30681
HEad  -54.0219 -0.553244 -7.74758
LeftShoulder1  9.48763 -23.1063 -29.4671
LeftArm  -10.5512 -69.6366 -27.8192
LeftForeArm  50.7593 -0.202573 -9.4048
LeftHand  -0.244104 0.0205437 5.32207
RightShoulder  9.76359 17.6054 40.0568
RightArm  -5.43785 42.7633 26.3407
RightForeArm  24.0162 0.706741 8.58895
RightHand  -37.0592 44.536 -74.2864
LeftUpLeg  -29.7983 -3.23395 -3.82503
LeftLeg  98.1391 -1.03794 4.24887
LeftFoot  2.04976 0.270059 -2.39427
LeftToes  -7.82198e-011 2.46994e-011 -7.94165e-012
489
root  32.5617 21.6985 -2.65553 163.131 85.8689 126.76
RightUpLeg  -43.8656 -7.10645 -2.09349
RightLeg  108.945 7.57762 -18.1372
RightFoot  -0.253963 -1.28154 13.1319
RightToes  -1.33073e-015 0 -3.6325e-017
Spine  54.4599 -5.31153 8.75777
Spine1  -10.9781 -0.773693 -1.06434
HEad  -54.6527 -0.864022 -8.39949
LeftShoulder1  9.40346 -23.0195 -29.2646
LeftArm  -9.51629 -70.3068 -29.4346
LeftForeArm  52.1108 0.0863422 -9.3719
LeftHand  -0.244104 0.0205437 5.32207
RightShoulder  9.73486 17.6257 39.8845
RightArm  -2.90159 42.6361 26.1917
RightForeArm  20.5739 0.844619 9.7278
RightHand  -34.9933 43.7232 -71.909
LeftUpLeg  -32.6281 -4.14523 -4.43913
LeftLeg  101.82 -1.51448 5.01503
LeftFoot  -0.359052 0.136222 -1.39511
LeftToes  -7.82198e-011 2.46994e-011 -7.94165e-012
